<svg xmlns="http://www.w3.org/2000/svg" width="22" height="22" viewBox="0 0 22 22">
    <g fill="#FFF" fill-rule="nonzero" stroke="#FFF" stroke-width=".5">
        <path d="M18.049 3.929A9.922 9.922 0 0 0 10.986 1a9.922 9.922 0 0 0-7.063 2.929c-3.64 3.64-3.904 9.456-.66 13.397-.449.917-.976 1.528-1.574 1.82a.935.935 0 0 0-.51.975c.062.406.372.72.778.783.221.033.46.054.707.054 1.226 0 2.514-.422 3.59-1.163a10 10 0 0 0 4.732 1.188 9.918 9.918 0 0 0 7.063-2.924 9.926 9.926 0 0 0 2.924-7.063 9.935 9.935 0 0 0-2.924-7.067zm-.8 13.326a8.802 8.802 0 0 1-6.263 2.594 8.856 8.856 0 0 1-4.485-1.217.584.584 0 0 0-.285-.08.588.588 0 0 0-.347.117c-1.28.992-2.57 1.139-3.134 1.151.674-.502 1.238-1.28 1.711-2.364a.569.569 0 0 0-.096-.602c-3.096-3.498-2.933-8.829.372-12.134a8.802 8.802 0 0 1 6.264-2.594c2.364 0 4.59.92 6.264 2.594 3.456 3.46 3.456 9.083 0 12.535z"/>
        <path d="M15.17 7.695H6.802a.563.563 0 0 0-.565.564c0 .314.251.565.565.565h8.368a.565.565 0 0 0 0-1.13zM15.17 10.427H6.802a.563.563 0 0 0-.565.565c0 .313.251.564.565.564h8.368a.565.565 0 0 0 0-1.13zM15.17 13.159H6.802a.563.563 0 0 0-.565.565c0 .314.251.565.565.565h8.368a.565.565 0 0 0 0-1.13z"/>
    </g>
</svg>
