<svg xmlns="http://www.w3.org/2000/svg" xmlns:xlink="http://www.w3.org/1999/xlink" width="33" height="33" viewBox="0 0 33 33">
    <defs>
        <filter id="a" width="196%" height="196%" x="-48%" y="-48%" filterUnits="objectBoundingBox">
            <feOffset dy="2" in="SourceAlpha" result="shadowOffsetOuter1"/>
            <feGaussianBlur in="shadowOffsetOuter1" result="shadowBlurOuter1" stdDeviation="2"/>
            <feColorMatrix in="shadowBlurOuter1" result="shadowMatrixOuter1" values="0 0 0 0 0 0 0 0 0 0 0 0 0 0 0 0 0 0 0.110385708 0"/>
            <feMerge>
                <feMergeNode in="shadowMatrixOuter1"/>
                <feMergeNode in="SourceGraphic"/>
            </feMerge>
        </filter>
        <path id="b" d="M5.879.458A3.936 3.936 0 0 1 7.9 4.032a4.018 4.018 0 0 1-.47 1.773 3.985 3.985 0 0 1-1.598 1.627h.003c-.445.25-.943.411-1.473.468h-.01a3.855 3.855 0 0 1-.387.022l-.014.001-.051-.001c-.05 0-.099-.001-.148-.004h-.009A3.884 3.884 0 0 1 .358 5.525a4.144 4.144 0 0 1-.043-.108L.307 5.4A4.03 4.03 0 0 1 .035 3.94c0-.041.002-.082.004-.123-.025.218-.039.44-.039.665 0 3.229 2.603 5.846 5.815 5.846 3.18 0 5.764-2.569 5.812-5.755l.002-.091c0-.998-.249-1.937-.687-2.758a2.154 2.154 0 0 0-.324-.46 3.96 3.96 0 0 0-2.9-1.257c-.665 0-1.29.163-1.84.45"/>
        <linearGradient id="c" x1="0%" y1="50%" y2="50%">
            <stop offset="0%" stop-color="#F6A41F"/>
            <stop offset="100%" stop-color="#D65115"/>
        </linearGradient>
        <path id="e" d="M.614 1.878a5.874 5.874 0 0 0-.58 1.796c-.062.624.023 1.25.24 1.825l.008.019c.013.036.028.072.043.108.582 1.362 1.883 2.333 3.417 2.415h.009c.05.003.1.003.15.004h.065a3.859 3.859 0 0 0 .39-.022h.01A3.982 3.982 0 0 0 5.85 7.55c-.848-.185-1.605-.935-1.876-1.97a3.101 3.101 0 0 1-.093-.553c-.028-.365.012-.72.11-1.043.12-.392.324-.738.597-1.001.23-.222.507-.386.823-.47.952-.252 1.954.293 2.484 1.265A4.024 4.024 0 0 0 5.88.52a3.9 3.9 0 0 0-.808-.345A3.876 3.876 0 0 0 3.952.01 3.933 3.933 0 0 0 .614 1.878"/>
        <linearGradient id="f" x1="-725.757%" x2="878.415%" y1="50%" y2="50%">
            <stop offset="0%" stop-color="#F6CE0E"/>
            <stop offset="100%" stop-color="#F7AC1A"/>
        </linearGradient>
        <path id="h" d="M.016.002H4.44v3.221H.016z"/>
    </defs>
    <g fill="none" fill-rule="evenodd">
        <path fill="#FFF" fill-rule="nonzero" d="M21.311 3.661A12.403 12.403 0 0 0 12.483 0c-3.337 0-6.47 1.302-8.829 3.661-4.55 4.55-4.88 11.82-.826 16.747-.56 1.145-1.219 1.909-1.967 2.275a1.17 1.17 0 0 0-.638 1.219c.079.507.466.9.973.978.277.042.575.068.884.068 1.532 0 3.143-.529 4.487-1.454a12.5 12.5 0 0 0 5.916 1.485c3.336 0 6.47-1.297 8.828-3.656a12.407 12.407 0 0 0 3.656-8.828c0-3.332-1.297-6.475-3.656-8.834z" filter="url(#a)" transform="matrix(-1 0 0 1 29 2)"/>
        <g transform="translate(11 10.77)">
            <mask id="d" fill="#fff">
                <use xlink:href="#b"/>
            </mask>
            <path fill="url(#c)" d="M5.879.458A3.936 3.936 0 0 1 7.9 4.032a4.018 4.018 0 0 1-.47 1.773 3.985 3.985 0 0 1-1.598 1.627h.003c-.445.25-.943.411-1.473.468h-.01a3.855 3.855 0 0 1-.387.022l-.014.001-.051-.001c-.05 0-.099-.001-.148-.004h-.009A3.884 3.884 0 0 1 .358 5.525a4.144 4.144 0 0 1-.043-.108L.307 5.4A4.03 4.03 0 0 1 .035 3.94c0-.041.002-.082.004-.123-.025.218-.039.44-.039.665 0 3.229 2.603 5.846 5.815 5.846 3.18 0 5.764-2.569 5.812-5.755l.002-.091c0-.998-.249-1.937-.687-2.758a2.154 2.154 0 0 0-.324-.46 3.96 3.96 0 0 0-2.9-1.257c-.665 0-1.29.163-1.84.45" mask="url(#d)"/>
        </g>
        <g transform="translate(11 10.648)">
            <mask id="g" fill="#fff">
                <use xlink:href="#e"/>
            </mask>
            <path fill="url(#f)" d="M.614 1.878a5.874 5.874 0 0 0-.58 1.796c-.062.624.023 1.25.24 1.825l.008.019c.013.036.028.072.043.108.582 1.362 1.883 2.333 3.417 2.415h.009c.05.003.1.003.15.004h.065a3.859 3.859 0 0 0 .39-.022h.01A3.982 3.982 0 0 0 5.85 7.55c-.848-.185-1.605-.935-1.876-1.97a3.101 3.101 0 0 1-.093-.553c-.028-.365.012-.72.11-1.043.12-.392.324-.738.597-1.001.23-.222.507-.386.823-.47.952-.252 1.954.293 2.484 1.265A4.024 4.024 0 0 0 5.88.52a3.9 3.9 0 0 0-.808-.345A3.876 3.876 0 0 0 3.952.01 3.933 3.933 0 0 0 .614 1.878" mask="url(#g)"/>
        </g>
        <g transform="translate(16.667 7)">
            <mask id="i" fill="#fff">
                <use xlink:href="#h"/>
            </mask>
            <path fill="#A0A820" d="M4.433.541C2.606-.995-.338 1.061.052 2.828c1.84 1.294 4.534-.886 4.381-2.287" mask="url(#i)"/>
        </g>
        <path fill="#C4B905" d="M16.25 9.735c-.337-1.912-3.232-2.18-3.907-.877.472 1.77 3.276 1.827 3.908.877"/>
    </g>
</svg>
