<svg xmlns="http://www.w3.org/2000/svg" width="20" height="20" viewBox="0 0 20 20">
    <g fill="#FFF" fill-rule="evenodd">
        <path fill-rule="nonzero" d="M9.116.011C4.012.254-.015 4.505 0 9.614a9.544 9.544 0 0 0 1.043 4.324L.026 18.877a.373.373 0 0 0 .451.438l4.84-1.146c1.244.62 2.64.977 4.119 1 5.216.08 9.566-4.063 9.729-9.278.174-5.59-4.44-10.147-10.049-9.88zm5.776 14.88a7.456 7.456 0 0 1-5.307 2.198 7.427 7.427 0 0 1-3.34-.782l-.674-.336-2.968.703.625-3.032-.332-.65a7.42 7.42 0 0 1-.816-3.407c0-2.005.78-3.89 2.198-5.307A7.518 7.518 0 0 1 9.585 2.08c2.004 0 3.89.78 5.307 2.198a7.456 7.456 0 0 1 2.198 5.306 7.518 7.518 0 0 1-2.198 5.307z"/>
        <path d="M14.237 11.663l-1.857-.533a.692.692 0 0 0-.685.18l-.454.463a.676.676 0 0 1-.735.155c-.878-.355-2.726-1.998-3.197-2.82a.676.676 0 0 1 .053-.749l.396-.513c.156-.2.188-.47.086-.703l-.781-1.766a.692.692 0 0 0-1.081-.248c-.519.438-1.133 1.104-1.208 1.842-.132 1.301.426 2.94 2.535 4.91 2.437 2.274 4.39 2.575 5.66 2.267.72-.174 1.297-.874 1.66-1.447a.693.693 0 0 0-.392-1.038z"/>
    </g>
</svg>
